<svg width="107" height="36" viewBox="0 0 107 36" version="1.1" xmlns="http://www.w3.org/2000/svg" xmlns:xlink="http://www.w3.org/1999/xlink" xmlns:figma="http://www.figma.com/figma/ns">
<title>logo?</title>
<desc>Created using Figma</desc>
<g id="Canvas" transform="translate(-1003 497)" figma:type="canvas">
<g id="logo?" figma:type="frame">
<g id="Rectangle" figma:type="rounded-rectangle">
<mask id="mask0_outline_ins">
<use xlink:href="#path0_fill" fill="white" transform="translate(1003 -497)"/>
</mask>
<g mask="url(#mask0_outline_ins)">
<use xlink:href="#path1_stroke_2x" transform="translate(1003 -497)" fill="#131515"/>
</g>
</g>
<g id="AKACHI" figma:type="text">
<use xlink:href="#path2_fill" transform="translate(1013 -492)" fill="#131515"/>
</g>
</g>
</g>
<defs>
<path id="path0_fill" d="M 0 5C 0 2.23858 2.23858 0 5 0L 102 0C 104.761 0 107 2.23858 107 5L 107 31C 107 33.7614 104.761 36 102 36L 5 36C 2.23858 36 0 33.7614 0 31L 0 5Z"/>
<path id="path1_stroke_2x" d="M 5 1.5L 102 1.5L 102 -1.5L 5 -1.5L 5 1.5ZM 105.5 5L 105.5 31L 108.5 31L 108.5 5L 105.5 5ZM 102 34.5L 5 34.5L 5 37.5L 102 37.5L 102 34.5ZM 1.5 31L 1.5 5L -1.5 5L -1.5 31L 1.5 31ZM 5 -1.5C 1.41015 -1.5 -1.5 1.41015 -1.5 5L 1.5 5C 1.5 3.067 3.067 1.5 5 1.5L 5 -1.5ZM 102 1.5C 103.933 1.5 105.5 3.067 105.5 5L 108.5 5C 108.5 1.41015 105.59 -1.5 102 -1.5L 102 1.5ZM 105.5 31C 105.5 32.933 103.933 34.5 102 34.5L 102 37.5C 105.59 37.5 108.5 34.5899 108.5 31L 105.5 31ZM 5 34.5C 3.067 34.5 1.5 32.933 1.5 31L -1.5 31C -1.5 34.5899 1.41015 37.5 5 37.5L 5 34.5Z"/>
<path id="path2_fill" d="M 4.896 15.784L 10.368 15.784L 7.632 8.032L 4.896 15.784ZM 9.192 6.424L 14.568 20.584C 14.696 20.888 14.696 21.184 14.568 21.472C 14.456 21.744 14.248 21.936 13.944 22.048C 13.64 22.16 13.352 22.152 13.08 22.024C 12.808 21.896 12.616 21.688 12.504 21.4L 11.136 17.8L 4.128 17.8L 2.736 21.4C 2.624 21.688 2.432 21.896 2.16 22.024C 1.888 22.152 1.6 22.16 1.296 22.048C 0.992 21.936 0.776 21.744 0.648 21.472C 0.536 21.184 0.544 20.888 0.672 20.584L 6.048 6.424C 6.352 5.704 6.864 5.344 7.584 5.344L 7.704 5.344C 8.408 5.344 8.904 5.704 9.192 6.424ZM 22.3703 13.72L 28.3943 20.224C 28.6023 20.448 28.7063 20.704 28.7063 20.992C 28.7223 21.28 28.6263 21.528 28.4183 21.736C 28.1943 21.992 27.9303 22.12 27.6263 22.12C 27.3223 22.136 27.0663 22.024 26.8583 21.784L 20.4983 14.944L 20.4983 20.992C 20.4983 21.312 20.3863 21.584 20.1623 21.808C 19.9543 22.016 19.6903 22.12 19.3703 22.12C 19.0663 22.12 18.8023 22.016 18.5783 21.808C 18.3703 21.584 18.2663 21.312 18.2663 20.992L 18.2663 6.472C 18.2663 6.152 18.3703 5.888 18.5783 5.68C 18.8023 5.456 19.0663 5.344 19.3703 5.344C 19.6903 5.344 19.9543 5.456 20.1623 5.68C 20.3863 5.888 20.4983 6.152 20.4983 6.472L 20.4983 12.616L 25.6823 5.848C 25.8583 5.592 26.0823 5.44 26.3543 5.392C 26.6423 5.328 26.9143 5.376 27.1703 5.536C 27.4583 5.696 27.6343 5.928 27.6983 6.232C 27.7623 6.52 27.6983 6.792 27.5063 7.048L 22.3703 13.72ZM 35.2569 15.784L 40.7289 15.784L 37.9929 8.032L 35.2569 15.784ZM 39.5529 6.424L 44.9289 20.584C 45.0569 20.888 45.0569 21.184 44.9289 21.472C 44.8169 21.744 44.6089 21.936 44.3049 22.048C 44.0009 22.16 43.7129 22.152 43.4409 22.024C 43.1689 21.896 42.9769 21.688 42.8649 21.4L 41.4969 17.8L 34.4889 17.8L 33.0969 21.4C 32.9849 21.688 32.7929 21.896 32.5209 22.024C 32.2489 22.152 31.9609 22.16 31.6569 22.048C 31.3529 21.936 31.1369 21.744 31.0089 21.472C 30.8969 21.184 30.9049 20.888 31.0329 20.584L 36.4089 6.424C 36.7129 5.704 37.2249 5.344 37.9449 5.344L 38.0649 5.344C 38.7689 5.344 39.2649 5.704 39.5529 6.424ZM 56.0192 5.272C 58.1792 5.272 60.0112 5.96 61.5152 7.336C 61.7392 7.528 61.8592 7.776 61.8752 8.08C 61.9072 8.384 61.8272 8.656 61.6352 8.896C 61.4272 9.136 61.1632 9.264 60.8432 9.28C 60.5392 9.296 60.2752 9.208 60.0512 9.016C 58.8672 7.96 57.5232 7.432 56.0192 7.432C 54.2912 7.432 52.8352 8.048 51.6512 9.28C 50.4672 10.512 49.8752 12.008 49.8752 13.768C 49.8752 15.528 50.4672 17.024 51.6512 18.256C 52.8352 19.472 54.2912 20.08 56.0192 20.08C 57.5232 20.08 58.8672 19.552 60.0512 18.496C 60.2752 18.304 60.5392 18.216 60.8432 18.232C 61.1632 18.248 61.4272 18.376 61.6352 18.616C 61.8272 18.856 61.9072 19.128 61.8752 19.432C 61.8592 19.736 61.7392 19.984 61.5152 20.176C 60.0112 21.552 58.1792 22.24 56.0192 22.24C 53.6832 22.24 51.6992 21.416 50.0672 19.768C 48.4512 18.104 47.6432 16.096 47.6432 13.744C 47.6432 11.392 48.4512 9.392 50.0672 7.744C 51.6992 6.096 53.6832 5.272 56.0192 5.272ZM 76.2471 20.992L 76.2471 14.8L 68.2551 14.8L 68.2551 20.992C 68.2551 21.312 68.1431 21.584 67.9191 21.808C 67.7111 22.016 67.4471 22.12 67.1271 22.12C 66.8231 22.12 66.5591 22.016 66.3351 21.808C 66.1271 21.584 66.0231 21.312 66.0231 20.992L 66.0231 6.472C 66.0231 6.152 66.1271 5.888 66.3351 5.68C 66.5591 5.456 66.8231 5.344 67.1271 5.344C 67.4471 5.344 67.7111 5.456 67.9191 5.68C 68.1431 5.888 68.2551 6.152 68.2551 6.472L 68.2551 12.76L 76.2471 12.76L 76.2471 6.472C 76.2471 6.152 76.3511 5.888 76.5591 5.68C 76.7831 5.456 77.0471 5.344 77.3511 5.344C 77.6711 5.344 77.9351 5.456 78.1431 5.68C 78.3671 5.888 78.4791 6.152 78.4791 6.472L 78.4791 20.992C 78.4791 21.312 78.3671 21.584 78.1431 21.808C 77.9351 22.016 77.6711 22.12 77.3511 22.12C 77.0471 22.12 76.7831 22.016 76.5591 21.808C 76.3511 21.584 76.2471 21.312 76.2471 20.992ZM 86.2832 6.472L 86.2832 20.992C 86.2832 21.312 86.1712 21.584 85.9472 21.808C 85.7392 22.016 85.4752 22.12 85.1552 22.12C 84.8512 22.12 84.5872 22.016 84.3632 21.808C 84.1552 21.584 84.0512 21.312 84.0512 20.992L 84.0512 6.472C 84.0512 6.152 84.1552 5.888 84.3632 5.68C 84.5872 5.456 84.8512 5.344 85.1552 5.344C 85.4752 5.344 85.7392 5.456 85.9472 5.68C 86.1712 5.888 86.2832 6.152 86.2832 6.472Z"/>
</defs>
</svg>
